<?xml version="1.0" encoding="UTF-8"?>
<svg xmlns="http://www.w3.org/2000/svg" xmlns:xlink="http://www.w3.org/1999/xlink" width="150px" height="150px" viewBox="0 0 150 150" version="1.1">
<g id="surface1">
<rect x="0" y="0" width="150" height="150" style="fill:rgb(3.529412%,63.137255%,63.137255%);fill-opacity:1;stroke:none;"/>
<path style=" stroke:none;fill-rule:nonzero;fill:rgb(0%,9.019608%,9.019608%);fill-opacity:1;" d="M 69.8125 49.117188 L 69.671875 49.066406 L 69.671875 35.894531 L 69.820312 35.761719 L 69.871094 35.679688 L 118.539062 67.226562 L 69.808594 49.132812 Z M 69.8125 85.359375 L 69.808594 85.34375 L 118.539062 67.25 L 69.863281 98.796875 L 69.820312 98.722656 L 69.671875 98.722656 L 69.671875 85.410156 Z M 69.8125 85.359375 "/>
<path style=" stroke:none;fill-rule:nonzero;fill:rgb(0.392157%,31.372549%,31.764706%);fill-opacity:1;" d="M 92.253906 14.796875 L 118.539062 67.226562 L 69.871094 35.679688 L 69.808594 35.640625 L 69.820312 35.613281 L 92.097656 14.945312 Z M 118.539062 67.25 L 92.253906 119.679688 L 92.105469 119.535156 L 69.820312 98.863281 L 69.808594 98.835938 L 69.863281 98.796875 Z M 118.539062 67.25 "/>
<path style=" stroke:none;fill-rule:nonzero;fill:rgb(0.392157%,41.960784%,41.960784%);fill-opacity:1;" d="M 69.808594 35.640625 L 69.871094 35.679688 L 69.820312 35.761719 L 34.171875 35.761719 L 33.851562 35.640625 L 42.753906 14.921875 L 42.800781 14.945312 L 92.097656 14.945312 L 69.820312 35.613281 Z M 69.820312 35.761719 L 69.671875 35.894531 L 69.671875 35.761719 Z M 69.820312 98.722656 L 69.863281 98.796875 L 69.808594 98.835938 L 69.820312 98.863281 L 92.105469 119.535156 L 42.800781 119.535156 L 42.753906 119.558594 L 33.851562 98.835938 L 34.152344 98.722656 L 69.511719 98.722656 L 69.671875 98.871094 L 69.671875 98.722656 Z M 69.820312 98.722656 "/>
<path style=" stroke:none;fill-rule:nonzero;fill:rgb(0.392157%,31.372549%,31.764706%);fill-opacity:1;" d="M 69.808594 49.132812 L 118.539062 67.226562 L 118.539062 67.25 L 69.808594 85.34375 L 69.8125 85.359375 L 69.671875 85.410156 L 69.671875 49.066406 L 69.8125 49.117188 Z M 69.808594 49.132812 "/>
<path style=" stroke:none;fill-rule:nonzero;fill:rgb(0.392157%,41.960784%,41.960784%);fill-opacity:1;" d="M 69.671875 98.722656 L 69.671875 98.871094 L 69.511719 98.722656 Z M 69.671875 98.722656 "/>
<path style=" stroke:none;fill-rule:nonzero;fill:rgb(0%,12.941176%,13.333333%);fill-opacity:1;" d="M 69.671875 85.410156 L 69.671875 98.722656 L 69.511719 98.722656 L 59.375 89.265625 Z M 69.671875 85.410156 "/>
<path style=" stroke:none;fill-rule:nonzero;fill:rgb(0.392157%,41.960784%,41.960784%);fill-opacity:1;" d="M 69.671875 85.363281 L 69.671875 85.410156 L 59.375 89.265625 L 35.996094 67.269531 L 35.996094 67.207031 L 59.375 45.207031 L 69.671875 49.066406 Z M 69.671875 85.363281 "/>
<path style=" stroke:none;fill-rule:nonzero;fill:rgb(0%,12.941176%,13.333333%);fill-opacity:1;" d="M 69.671875 35.894531 L 69.671875 49.066406 L 59.375 45.207031 Z M 69.671875 35.894531 "/>
<path style=" stroke:none;fill-rule:nonzero;fill:rgb(0.392157%,20.784314%,20.784314%);fill-opacity:1;" d="M 69.671875 35.761719 L 69.671875 35.894531 L 59.375 45.207031 L 34.171875 35.761719 Z M 69.511719 98.722656 L 34.152344 98.722656 L 59.375 89.265625 Z M 69.511719 98.722656 "/>
<path style=" stroke:none;fill-rule:nonzero;fill:rgb(100%,100%,100%);fill-opacity:1;" d="M 53.132812 127.898438 L 57.210938 127.898438 L 58.539062 133.015625 L 58.972656 135.039062 L 59.042969 135.039062 L 59.476562 133.015625 L 60.726562 127.898438 L 64.804688 127.898438 L 64.804688 143.582031 L 61.476562 143.582031 L 61.476562 139.890625 C 61.476562 139.421875 61.496094 138.832031 61.539062 138.121094 C 61.578125 137.402344 61.625 136.664062 61.667969 135.902344 C 61.714844 135.136719 61.777344 134.398438 61.835938 133.691406 C 61.902344 132.984375 61.960938 132.398438 62.003906 131.929688 L 61.933594 131.929688 L 60.632812 136.589844 L 59.8125 139.414062 L 58.023438 139.414062 L 57.207031 136.589844 L 55.972656 131.929688 L 55.878906 131.929688 C 55.921875 132.398438 55.984375 132.984375 56.046875 133.691406 C 56.109375 134.398438 56.167969 135.136719 56.214844 135.902344 C 56.257812 136.664062 56.304688 137.40625 56.34375 138.121094 C 56.386719 138.835938 56.40625 139.429688 56.40625 139.890625 L 56.40625 143.582031 L 53.125 143.582031 Z M 78.273438 140.253906 L 73.976562 140.253906 L 73.203125 143.582031 L 68.957031 143.582031 L 73.6875 127.898438 L 78.707031 127.898438 L 83.433594 143.582031 L 79.042969 143.582031 Z M 77.523438 137.042969 L 77.285156 135.957031 C 77.105469 135.199219 76.925781 134.378906 76.730469 133.5 C 76.539062 132.613281 76.34375 131.777344 76.148438 130.988281 L 76.054688 130.988281 C 75.875 131.792969 75.699219 132.632812 75.507812 133.507812 C 75.324219 134.382812 75.140625 135.203125 74.964844 135.957031 L 74.726562 137.042969 Z M 90.8125 135.523438 L 86.542969 127.898438 L 91.175781 127.898438 L 92.429688 130.453125 C 92.605469 130.828125 92.789062 131.222656 92.984375 131.652344 C 93.175781 132.078125 93.386719 132.546875 93.609375 133.0625 L 93.707031 133.0625 C 93.882812 132.546875 94.058594 132.074219 94.234375 131.652344 C 94.414062 131.222656 94.582031 130.828125 94.742188 130.453125 L 95.851562 127.898438 L 100.292969 127.898438 L 96.019531 135.71875 L 100.554688 143.582031 L 95.925781 143.582031 L 94.480469 140.78125 C 94.253906 140.363281 94.046875 139.949219 93.863281 139.53125 C 93.679688 139.113281 93.480469 138.660156 93.273438 138.179688 L 93.175781 138.179688 C 92.996094 138.664062 92.820312 139.113281 92.632812 139.53125 C 92.449219 139.949219 92.261719 140.363281 92.066406 140.78125 L 90.71875 143.582031 L 86.277344 143.582031 Z M 90.8125 135.523438 "/>
</g>
</svg>
