<?xml version="1.0" standalone="no"?>
<!DOCTYPE svg PUBLIC "-//W3C//DTD SVG 20010904//EN"
 "http://www.w3.org/TR/2001/REC-SVG-20010904/DTD/svg10.dtd">
<svg version="1.0" xmlns="http://www.w3.org/2000/svg"
 width="259.000000pt" height="194.000000pt" viewBox="0 0 259.000000 194.000000"
 preserveAspectRatio="xMidYMid meet">

<g transform="translate(0.000000,194.000000) scale(0.100000,-0.100000)"
fill="#000000" stroke="none">
<path d="M393 1007 l-102 -191 23 -30 c12 -17 35 -33 49 -37 24 -6 28 -4 33
19 3 15 7 33 10 40 2 8 28 12 82 12 l79 0 7 -38 c5 -37 7 -38 40 -34 26 3 42
14 61 39 l27 34 -43 82 c-63 122 -150 281 -158 289 -3 4 -52 -79 -108 -185z"/>
<path d="M1028 1110 c-20 -49 -32 -90 -27 -90 5 0 11 11 15 25 5 22 11 25 53
25 42 0 49 -3 60 -26 6 -15 14 -24 17 -21 9 9 -59 177 -72 177 -6 0 -27 -40
-46 -90z m81 -17 c1 -8 -12 -13 -34 -13 -40 0 -43 9 -19 66 l17 39 18 -40 c9
-22 18 -46 18 -52z"/>
<path d="M1180 1130 c0 -80 19 -110 68 -110 48 0 62 26 60 111 l-1 74 -6 -72
c-7 -87 -25 -112 -68 -97 -27 9 -28 12 -31 87 -4 96 -22 102 -22 7z"/>
<path d="M1363 1193 c27 -4 27 -4 27 -89 0 -49 4 -84 10 -84 6 0 10 35 10 84
0 85 0 85 28 89 15 2 -2 4 -38 4 -36 0 -53 -2 -37 -4z"/>
<path d="M1501 1174 c-45 -57 -13 -154 50 -154 46 0 67 16 79 61 9 34 8 46 -7
77 -16 33 -23 37 -59 40 -35 3 -45 -1 -63 -24z m99 -4 c46 -46 5 -151 -54
-136 -18 4 -32 18 -41 40 -33 79 39 152 95 96z"/>
<path d="M1670 1110 l0 -90 33 0 c75 0 118 53 98 121 -14 45 -35 59 -90 59
l-41 0 0 -90z m94 59 c50 -40 25 -124 -39 -131 l-30 -3 -3 78 c-3 76 -2 77 21
77 13 0 36 -9 51 -21z"/>
<path d="M1850 1110 l0 -90 46 0 c29 0 43 4 39 11 -4 6 -21 9 -38 7 -30 -3
-32 -1 -32 32 0 32 3 36 35 41 l35 6 -38 2 c-37 1 -38 2 -35 34 3 29 7 33 43
38 l40 6 -47 2 -48 1 0 -90z"/>
<path d="M1980 1185 c-19 -23 -8 -48 33 -74 59 -38 41 -96 -23 -76 -11 4 -20
2 -20 -4 0 -17 67 -13 85 5 24 24 14 55 -25 82 -22 15 -35 31 -35 45 0 17 8
23 35 28 l35 6 -36 2 c-21 0 -42 -5 -49 -14z"/>
<path d="M2110 1110 c0 -53 4 -90 10 -90 6 0 10 20 10 44 l0 45 44 -47 c57
-60 69 -50 15 12 l-42 47 39 40 c48 50 33 52 -18 2 l-38 -37 0 37 c0 20 -4 37
-10 37 -6 0 -10 -37 -10 -90z"/>
<path d="M1066 911 c-3 -5 -21 -45 -41 -90 -25 -59 -31 -81 -20 -81 7 0 17 9
20 20 5 16 15 20 55 20 40 0 50 -4 55 -20 3 -11 13 -20 21 -20 12 0 12 5 -2
38 -8 20 -25 61 -37 89 -21 50 -38 65 -51 44z m32 -54 c18 -49 15 -57 -18 -57
-16 0 -30 5 -30 12 0 18 23 78 30 78 3 0 11 -15 18 -33z"/>
<path d="M1200 852 c0 -87 16 -112 70 -112 54 0 70 25 70 112 0 39 -4 68 -10
68 -5 0 -10 -24 -10 -54 0 -79 -13 -106 -50 -106 -37 0 -50 27 -50 106 0 30
-4 54 -10 54 -6 0 -10 -29 -10 -68z"/>
<path d="M1370 910 c0 -5 14 -10 30 -10 l30 0 0 -80 c0 -47 4 -80 10 -80 6 0
10 33 10 80 l0 80 30 0 c17 0 30 5 30 10 0 6 -30 10 -70 10 -40 0 -70 -4 -70
-10z"/>
<path d="M1552 897 c-30 -31 -30 -104 -2 -135 32 -34 102 -31 130 6 29 35 23
107 -10 134 -32 26 -91 23 -118 -5z m100 -14 c23 -20 24 -85 2 -107 -23 -24
-70 -20 -88 6 -48 69 26 156 86 101z"/>
<path d="M1763 900 c-12 -10 -24 -29 -28 -41 -11 -33 4 -87 28 -104 24 -17
112 -21 102 -5 -3 6 -21 10 -39 10 -42 0 -66 26 -66 72 0 43 25 68 68 68 18 0
32 5 32 10 0 18 -75 11 -97 -10z"/>
<path d="M1918 830 c-26 -65 -33 -90 -23 -90 7 0 17 9 20 20 5 16 15 20 55 20
40 0 50 -4 55 -20 3 -11 12 -20 20 -20 10 0 3 26 -23 90 -23 56 -43 90 -52 90
-10 0 -28 -33 -52 -90z m70 21 c16 -52 16 -51 -18 -51 -16 0 -30 5 -30 12 0
18 23 78 30 78 4 0 12 -17 18 -39z"/>
<path d="M2090 831 l0 -91 44 0 c63 0 101 33 101 89 0 56 -28 82 -94 89 l-51
5 0 -92z m100 49 c11 -11 20 -33 20 -50 0 -17 -9 -39 -20 -50 -11 -11 -33 -20
-50 -20 l-30 0 0 70 0 70 30 0 c17 0 39 -9 50 -20z"/>
</g>
</svg>
