<?xml version="1.0" encoding="UTF-8"?>
<svg xmlns="http://www.w3.org/2000/svg" xmlns:xlink="http://www.w3.org/1999/xlink" width="160px" height="57px" viewBox="0 0 160 57" version="1.1">
<g id="surface1">
<path style="stroke:none;fill-rule:nonzero;fill:#FFFFFF;fill-opacity:1;" d="M 54.492188 10.042969 L 54.222656 9.199219 C 54.109375 8.921875 53.929688 8.136719 54.992188 8.136719 L 58.714844 8.136719 C 59.316406 8.136719 59.4375 8.691406 59.550781 8.964844 L 65.761719 26.898438 C 65.761719 26.898438 66.242188 28.484375 66.628906 28.484375 C 67.054688 28.484375 67.542969 26.898438 67.542969 26.898438 L 73.621094 8.964844 C 73.738281 8.691406 73.859375 8.136719 74.683594 8.136719 L 78.175781 8.136719 C 79.148438 8.136719 79.113281 8.691406 79.007812 8.964844 L 78.671875 9.882812 L 68.046875 40.75 C 67.839844 41.753906 65.261719 41.703125 65.105469 40.75 Z M 141.707031 41.667969 L 130.734375 8.929688 C 130.621094 8.652344 130.582031 8.113281 131.566406 8.101562 L 135.628906 8.101562 C 135.90625 8.101562 136.277344 8.242188 136.460938 8.929688 C 136.460938 8.929688 143.5 30.289062 143.753906 30.992188 C 144.023438 31.75 144.265625 32.558594 144.597656 32.605469 C 144.875 32.644531 145.167969 32.011719 145.414062 31.359375 C 145.742188 30.480469 154 9.042969 154 9.042969 C 154.105469 8.769531 154.203125 8.5625 154.28125 8.414062 C 154.371094 8.277344 154.550781 8.214844 154.820312 8.214844 L 158.972656 8.214844 C 160 8.214844 159.914062 8.769531 159.800781 9.042969 L 145.035156 47.21875 L 141.34375 56.152344 C 141.230469 56.429688 141.121094 56.625 141.011719 56.738281 C 140.953125 56.902344 140.789062 56.988281 140.515625 56.988281 L 136.792969 56.988281 C 136.519531 56.988281 136.261719 56.902344 136.046875 56.738281 C 135.875 56.625 135.851562 56.429688 135.964844 56.152344 Z M 77.222656 27.4375 C 77.222656 26.660156 77.484375 25.988281 78.019531 25.40625 C 78.601562 24.824219 79.289062 24.53125 80.113281 24.53125 C 80.886719 24.53125 81.566406 24.824219 82.140625 25.40625 C 82.722656 25.988281 83.007812 26.660156 83.007812 27.4375 C 83.007812 28.261719 82.722656 28.964844 82.140625 29.550781 C 81.566406 30.085938 80.886719 30.34375 80.113281 30.34375 C 79.289062 30.34375 78.605469 30.070312 78.054688 29.507812 C 77.5 28.960938 77.222656 28.261719 77.222656 27.4375 M 96.832031 13.679688 C 96.152344 13.960938 95.558594 14.40625 95.015625 14.847656 C 94.847656 14.957031 94.683594 15.097656 94.515625 15.265625 L 94.101562 15.679688 C 93.609375 16.277344 93.21875 16.949219 92.945312 17.675781 C 92.5625 18.558594 92.359375 19.527344 92.359375 20.582031 L 92.359375 40.535156 C 92.359375 41.089844 92.085938 41.367188 91.539062 41.367188 L 88.222656 41.367188 C 87.675781 41.367188 87.394531 41.089844 87.394531 40.535156 L 87.394531 20.582031 C 87.394531 19.804688 87.453125 19.027344 87.566406 18.257812 C 87.722656 17.394531 88 16.554688 88.394531 15.765625 C 89.046875 14.214844 89.933594 12.875 91.039062 11.773438 C 92.144531 10.660156 93.441406 9.773438 94.933594 9.109375 C 95.734375 8.78125 96.566406 8.53125 97.417969 8.363281 C 97.914062 8.246094 98.410156 8.171875 98.90625 8.113281 L 99.8125 8.113281 C 106.503906 7.960938 109.652344 12.164062 110.535156 12.941406 C 110.921875 13.328125 110.984375 14.019531 110.335938 14.316406 L 107.371094 15.105469 C 106.5625 15.421875 105.992188 15.304688 105.417969 14.730469 C 105.1875 14.5 101.40625 11.785156 96.832031 13.679688 "/>
<path style="stroke:none;fill-rule:nonzero;fill:#FFFFFF;fill-opacity:1;" d="M 128.804688 15.71875 C 128.144531 14.191406 127.261719 12.875 126.15625 11.769531 C 125.050781 10.660156 121.039062 7.378906 112.757812 8.707031 C 111.941406 9.03125 112.074219 9.53125 112.863281 10.3125 C 113.195312 10.636719 114.558594 12.164062 115.03125 12.542969 C 115.964844 13.285156 116.484375 13.199219 116.835938 13.179688 C 124.199219 12.769531 124.835938 19.527344 124.835938 20.582031 L 124.835938 20.832031 C 124.722656 21.214844 124.445312 21.417969 124.007812 21.417969 L 116.0625 21.417969 C 114.734375 21.417969 113.464844 21.675781 112.246094 22.203125 C 111.03125 22.734375 109.972656 23.433594 109.066406 24.324219 C 108.148438 25.210938 107.433594 26.261719 106.910156 27.484375 C 106.382812 28.699219 106.125 30.003906 106.125 31.390625 C 106.125 32.71875 106.382812 33.996094 106.910156 35.210938 C 107.433594 36.433594 108.148438 37.507812 109.066406 38.417969 C 109.972656 39.332031 111.03125 40.050781 112.246094 40.578125 C 113.464844 41.109375 114.734375 41.367188 116.0625 41.367188 L 128.96875 41.367188 C 129.523438 41.367188 129.796875 41.089844 129.796875 40.535156 L 129.796875 20.582031 C 129.796875 18.867188 129.46875 17.242188 128.804688 15.71875 M 124.835938 36.375 L 116.0625 36.375 C 114.671875 36.328125 111.089844 35.515625 111.089844 31.390625 C 111.089844 29.945312 111.6875 28.511719 112.539062 27.769531 C 114.210938 26.320312 116.0625 26.398438 116.0625 26.398438 L 124.007812 26.398438 C 124.445312 26.398438 124.722656 26.625 124.835938 27.066406 Z M 24.625 0.0117188 C 11.023438 0.0117188 0 11.078125 0 24.734375 C 0 38.390625 11.023438 49.457031 24.625 49.457031 C 38.222656 49.457031 49.246094 38.390625 49.246094 24.734375 C 49.246094 11.078125 38.222656 0.0117188 24.625 0.0117188 M 14.488281 5.40625 C 16.152344 3.523438 18.976562 2.054688 22.761719 1.6875 C 23.375 1.636719 23.992188 1.59375 24.621094 1.59375 C 30.820312 1.59375 36.40625 4.183594 40.394531 8.335938 C 39.835938 8.152344 39.058594 7.898438 37.5625 7.898438 C 25.417969 7.898438 21.296875 31.976562 17.660156 31.894531 C 15.25 31.976562 7 13.867188 14.488281 5.40625 M 24.621094 45.632812 C 12.507812 45.632812 2.691406 35.773438 2.691406 23.613281 C 2.691406 16.507812 6.0625 10.199219 11.269531 6.175781 C 2.5 16.121094 12.300781 37.542969 17.957031 38.121094 C 25 38.554688 27.667969 16.207031 35.941406 13.339844 C 42.148438 11.003906 46.847656 20.335938 44.011719 30.859375 C 41.132812 39.804688 33.78125 45.476562 24.621094 45.632812 M 25.136719 7.632812 C 28.601562 7.632812 31.433594 6.757812 31.457031 5.6875 C 31.488281 4.617188 28.691406 3.746094 25.222656 3.746094 C 21.753906 3.738281 18.929688 4.609375 18.898438 5.683594 C 18.875 6.75 21.671875 7.632812 25.136719 7.632812 "/>
</g>
</svg>
